# xmcd
#
# Track frame offsets: 
#        150
#        16526
#        33028
#        48686
#        74226
#        91617
#        111802
#        129656
#        147061
#        160179
#        178161
#        200269
#        218804
#        234619
#
# Disc length: 3384 seconds
#
# Revision: 0
# Processed by: cddbd v1.5.2PL0 Copyright (c) Steve Scherf et al.
# Submitted via: ExactAudioCopy v0.95b4
#
DISCID=bd0d360e
DTITLE=Alleygators - CHOMP - Best Of
DYEAR=2002
DGENRE=Blues
TTITLE0=Swamp Witch
TTITLE1=Cheatin' Wimmen'
TTITLE2=Bring Back My Caddilac
TTITLE3=Lazy Woman Blues
TTITLE4=Speak Of The Devil
TTITLE5=Ad-man Blues
TTITLE6=Pompadour
TTITLE7=A Loser's Christmas
TTITLE8=You're Blowin' It
TTITLE9=Hoodoo On You
TTITLE10=Fatman Blues
TTITLE11=Mardi Gras Boogie
TTITLE12=If You Don't Want Me
TTITLE13=Return Of The Swamp Witch
EXTD=
EXTT0=
EXTT1=
EXTT2=
EXTT3=
EXTT4=
EXTT5=
EXTT6=
EXTT7=
EXTT8=
EXTT9=
EXTT10=
EXTT11=
EXTT12=
EXTT13=
PLAYORDER=
